<mxfile host="drawio-plugin" modified="2021-05-18T17:33:51.810Z" agent="5.0 (Windows NT 6.2; Win64; x64) AppleWebKit/537.36 (KHTML, like Gecko) Chrome/87.0.4280.141 Safari/537.36" version="14.6.6" etag="4LIuKdeLz7jJqsUeipe7" type="embed"><diagram id="V88DnTGUJMB42985UFE2" name="Page-1"><mxGraphModel dx="1050" dy="686" grid="1" gridSize="10" guides="1" tooltips="1" connect="1" arrows="1" fold="1" page="1" pageScale="1" pageWidth="850" pageHeight="1100" background="#ffffff" math="0" shadow="0"><root><mxCell id="0"/><mxCell id="1" parent="0"/><mxCell id="2" value="Algorithm" style="swimlane;fontStyle=3;align=center;verticalAlign=top;childLayout=stackLayout;horizontal=1;startSize=26;horizontalStack=0;resizeParent=1;resizeParentMax=0;resizeLast=0;collapsible=1;marginBottom=0;fontColor=#000000;strokeColor=#0000CC;strokeWidth=2;fillColor=#FFFFFF;" vertex="1" parent="1"><mxGeometry x="470" y="130" width="190" height="60" as="geometry"/></mxCell><mxCell id="4" value="" style="line;strokeWidth=2;align=left;verticalAlign=middle;spacingTop=-1;spacingLeft=3;spacingRight=3;rotatable=0;labelPosition=right;points=[];portConstraint=eastwest;fontColor=#000000;strokeColor=#0000CC;fillColor=#FFFFFF;" vertex="1" parent="2"><mxGeometry y="26" width="190" height="8" as="geometry"/></mxCell><mxCell id="5" value="+ execute()" style="text;align=left;verticalAlign=top;spacingLeft=4;spacingRight=4;overflow=hidden;rotatable=0;points=[[0,0.5],[1,0.5]];portConstraint=eastwest;fontColor=#000000;strokeColor=#0000CC;strokeWidth=2;fillColor=#FFFFFF;fontStyle=2" vertex="1" parent="2"><mxGeometry y="34" width="190" height="26" as="geometry"/></mxCell><mxCell id="6" value="Algorithm1" style="swimlane;fontStyle=1;align=center;verticalAlign=top;childLayout=stackLayout;horizontal=1;startSize=26;horizontalStack=0;resizeParent=1;resizeParentMax=0;resizeLast=0;collapsible=1;marginBottom=0;fontColor=#000000;strokeColor=#0000CC;strokeWidth=2;fillColor=#FFFFFF;" vertex="1" parent="1"><mxGeometry x="330" y="330" width="190" height="86" as="geometry"/></mxCell><mxCell id="7" value="..." style="text;align=left;verticalAlign=top;spacingLeft=4;spacingRight=4;overflow=hidden;rotatable=0;points=[[0,0.5],[1,0.5]];portConstraint=eastwest;fontColor=#000000;strokeColor=#0000CC;strokeWidth=2;fillColor=#FFFFFF;" vertex="1" parent="6"><mxGeometry y="26" width="190" height="26" as="geometry"/></mxCell><mxCell id="8" value="" style="line;strokeWidth=2;align=left;verticalAlign=middle;spacingTop=-1;spacingLeft=3;spacingRight=3;rotatable=0;labelPosition=right;points=[];portConstraint=eastwest;fontColor=#000000;strokeColor=#0000CC;fillColor=#FFFFFF;" vertex="1" parent="6"><mxGeometry y="52" width="190" height="8" as="geometry"/></mxCell><mxCell id="9" value="+ execute()" style="text;align=left;verticalAlign=top;spacingLeft=4;spacingRight=4;overflow=hidden;rotatable=0;points=[[0,0.5],[1,0.5]];portConstraint=eastwest;fontColor=#000000;strokeColor=#0000CC;strokeWidth=2;fillColor=#FFFFFF;fontStyle=0" vertex="1" parent="6"><mxGeometry y="60" width="190" height="26" as="geometry"/></mxCell><mxCell id="10" value="Algorithm2" style="swimlane;fontStyle=1;align=center;verticalAlign=top;childLayout=stackLayout;horizontal=1;startSize=26;horizontalStack=0;resizeParent=1;resizeParentMax=0;resizeLast=0;collapsible=1;marginBottom=0;fontColor=#000000;strokeColor=#0000CC;strokeWidth=2;fillColor=#FFFFFF;" vertex="1" parent="1"><mxGeometry x="600" y="330" width="190" height="86" as="geometry"/></mxCell><mxCell id="11" value="..." style="text;align=left;verticalAlign=top;spacingLeft=4;spacingRight=4;overflow=hidden;rotatable=0;points=[[0,0.5],[1,0.5]];portConstraint=eastwest;fontColor=#000000;strokeColor=#0000CC;strokeWidth=2;fillColor=#FFFFFF;" vertex="1" parent="10"><mxGeometry y="26" width="190" height="26" as="geometry"/></mxCell><mxCell id="12" value="" style="line;strokeWidth=2;align=left;verticalAlign=middle;spacingTop=-1;spacingLeft=3;spacingRight=3;rotatable=0;labelPosition=right;points=[];portConstraint=eastwest;fontColor=#000000;strokeColor=#0000CC;fillColor=#FFFFFF;" vertex="1" parent="10"><mxGeometry y="52" width="190" height="8" as="geometry"/></mxCell><mxCell id="13" value="+ execute()" style="text;align=left;verticalAlign=top;spacingLeft=4;spacingRight=4;overflow=hidden;rotatable=0;points=[[0,0.5],[1,0.5]];portConstraint=eastwest;fontColor=#000000;strokeColor=#0000CC;strokeWidth=2;fillColor=#FFFFFF;fontStyle=0" vertex="1" parent="10"><mxGeometry y="60" width="190" height="26" as="geometry"/></mxCell><mxCell id="14" value="Extends" style="endArrow=block;endSize=16;endFill=0;html=1;exitX=0.5;exitY=0;exitDx=0;exitDy=0;entryX=0.25;entryY=1;entryDx=0;entryDy=0;strokeWidth=2;strokeColor=#0000CC;fontSize=17;fontColor=#000000;labelBackgroundColor=none;" edge="1" parent="1" source="6" target="2"><mxGeometry x="-0.1495" y="20" width="160" relative="1" as="geometry"><mxPoint x="390" y="320" as="sourcePoint"/><mxPoint x="470" y="250" as="targetPoint"/><mxPoint as="offset"/></mxGeometry></mxCell><mxCell id="15" value="Extends" style="endArrow=block;endSize=16;endFill=0;html=1;exitX=0.5;exitY=0;exitDx=0;exitDy=0;entryX=0.5;entryY=1;entryDx=0;entryDy=0;strokeWidth=2;strokeColor=#0000CC;fontSize=17;fontColor=#000000;labelBackgroundColor=none;" edge="1" parent="1" source="10" target="2"><mxGeometry x="-0.1495" y="20" width="160" relative="1" as="geometry"><mxPoint x="305" y="350" as="sourcePoint"/><mxPoint x="527.5" y="226" as="targetPoint"/><mxPoint as="offset"/></mxGeometry></mxCell><mxCell id="16" value="Executer" style="swimlane;fontStyle=1;align=center;verticalAlign=top;childLayout=stackLayout;horizontal=1;startSize=26;horizontalStack=0;resizeParent=1;resizeParentMax=0;resizeLast=0;collapsible=1;marginBottom=0;fontColor=#000000;strokeColor=#0000CC;strokeWidth=2;fillColor=#FFFFFF;" vertex="1" parent="1"><mxGeometry x="110" y="120" width="210" height="112" as="geometry"/></mxCell><mxCell id="17" value="# _algorithm" style="text;align=left;verticalAlign=top;spacingLeft=4;spacingRight=4;overflow=hidden;rotatable=0;points=[[0,0.5],[1,0.5]];portConstraint=eastwest;fontColor=#000000;strokeColor=#0000CC;strokeWidth=2;fillColor=#FFFFFF;" vertex="1" parent="16"><mxGeometry y="26" width="210" height="26" as="geometry"/></mxCell><mxCell id="18" value="" style="line;strokeWidth=2;align=left;verticalAlign=middle;spacingTop=-1;spacingLeft=3;spacingRight=3;rotatable=0;labelPosition=right;points=[];portConstraint=eastwest;fontColor=#000000;strokeColor=#0000CC;fillColor=#FFFFFF;" vertex="1" parent="16"><mxGeometry y="52" width="210" height="8" as="geometry"/></mxCell><mxCell id="19" value="+ set_algorithm(algorithm: Algorithm)" style="text;align=left;verticalAlign=top;spacingLeft=4;spacingRight=4;overflow=hidden;rotatable=0;points=[[0,0.5],[1,0.5]];portConstraint=eastwest;fontColor=#000000;strokeColor=#0000CC;strokeWidth=2;fillColor=#FFFFFF;fontStyle=0" vertex="1" parent="16"><mxGeometry y="60" width="210" height="26" as="geometry"/></mxCell><mxCell id="20" value="+ do_something()" style="text;align=left;verticalAlign=top;spacingLeft=4;spacingRight=4;overflow=hidden;rotatable=0;points=[[0,0.5],[1,0.5]];portConstraint=eastwest;fontColor=#000000;strokeColor=#0000CC;strokeWidth=2;fillColor=#FFFFFF;fontStyle=0" vertex="1" parent="16"><mxGeometry y="86" width="210" height="26" as="geometry"/></mxCell><mxCell id="22" value="1" style="endArrow=open;html=1;endSize=12;startArrow=diamondThin;startSize=14;startFill=1;edgeStyle=orthogonalEdgeStyle;align=left;verticalAlign=bottom;labelBackgroundColor=none;fontSize=17;fontColor=#000000;strokeColor=#0000CC;strokeWidth=2;exitX=1;exitY=0.25;exitDx=0;exitDy=0;entryX=0.25;entryY=0;entryDx=0;entryDy=0;" edge="1" parent="1" source="16" target="2"><mxGeometry x="-1" y="3" relative="1" as="geometry"><mxPoint x="390" y="220" as="sourcePoint"/><mxPoint x="550" y="220" as="targetPoint"/></mxGeometry></mxCell></root></mxGraphModel></diagram></mxfile>